<svg width="260" height="74" viewBox="40 40 260 74" fill="none" xmlns="http://www.w3.org/2000/svg">
<line x1="54.0034" y1="97.9841" x2="79.8815" y2="63.6428" stroke="#FFD700" stroke-width="5"/>
<line x1="125.549" y1="88.957" x2="85.7145" y2="55.5321" stroke="#FFD700" stroke-width="4"/>
<line x1="120.514" y1="81.6444" x2="146.61" y2="52.6618" stroke="#FFD700" stroke-width="4"/>
<circle cx="84.5" cy="54.5" r="12.5" fill="#FFD700"/>
<circle cx="120.5" cy="83.5" r="12.5" fill="#FFD700"/>
<circle cx="148.5" cy="52.5" r="12.5" fill="#FFD700"/>
<circle cx="52.5" cy="100.5" r="12.5" fill="#FFD700"/>
<path d="M179.923 54.8579V52.4224L188.716 52.4082V60.1113C187.366 61.1875 185.974 61.9993 184.539 62.5469C183.104 63.085 181.632 63.354 180.121 63.354C178.082 63.354 176.227 62.9198 174.556 62.0513C172.895 61.1733 171.639 59.9084 170.79 58.2563C169.94 56.6043 169.515 54.7588 169.515 52.7197C169.515 50.6995 169.935 48.8162 170.775 47.0698C171.625 45.314 172.843 44.0112 174.429 43.1616C176.015 42.312 177.841 41.8872 179.909 41.8872C181.41 41.8872 182.764 42.1326 183.973 42.6235C185.19 43.105 186.144 43.7799 186.833 44.6484C187.522 45.5169 188.046 46.6497 188.405 48.0469L185.927 48.7266C185.615 47.6693 185.228 46.8385 184.766 46.2344C184.303 45.6302 183.642 45.1488 182.783 44.79C181.924 44.4219 180.971 44.2378 179.923 44.2378C178.667 44.2378 177.582 44.4313 176.666 44.8184C175.75 45.196 175.009 45.6963 174.443 46.3193C173.886 46.9424 173.452 47.6268 173.14 48.3726C172.611 49.6564 172.347 51.0488 172.347 52.5498C172.347 54.4001 172.663 55.9482 173.296 57.1943C173.938 58.4404 174.868 59.3656 176.085 59.9697C177.303 60.5739 178.597 60.876 179.965 60.876C181.155 60.876 182.316 60.6494 183.449 60.1963C184.582 59.7337 185.441 59.2428 186.026 58.7236V54.8579H179.923ZM192.667 63V42.2412H195.414V60.5503H205.638V63H192.667ZM208.923 63V42.2412H216.753C218.132 42.2412 219.184 42.3073 219.911 42.4395C220.931 42.6094 221.785 42.9351 222.474 43.4165C223.163 43.8885 223.715 44.554 224.131 45.4131C224.556 46.2721 224.768 47.2161 224.768 48.2451C224.768 50.0104 224.206 51.5067 223.083 52.7339C221.96 53.9517 219.93 54.5605 216.994 54.5605H211.67V63H208.923ZM211.67 52.1108H217.037C218.811 52.1108 220.072 51.7804 220.817 51.1196C221.563 50.4588 221.936 49.529 221.936 48.3301C221.936 47.4616 221.714 46.7205 221.271 46.1069C220.836 45.4839 220.26 45.0732 219.543 44.875C219.08 44.7523 218.226 44.6909 216.98 44.6909H211.67V52.1108Z" fill="#FFD700"/>
<path d="M172.945 74.6309V73.623L176.584 73.6172V76.8047C176.025 77.25 175.449 77.5859 174.855 77.8125C174.262 78.0352 173.652 78.1465 173.027 78.1465C172.184 78.1465 171.416 77.9668 170.725 77.6074C170.037 77.2441 169.518 76.7207 169.166 76.0371C168.814 75.3535 168.639 74.5898 168.639 73.7461C168.639 72.9102 168.812 72.1309 169.16 71.4082C169.512 70.6816 170.016 70.1426 170.672 69.791C171.328 69.4395 172.084 69.2637 172.939 69.2637C173.561 69.2637 174.121 69.3652 174.621 69.5684C175.125 69.7676 175.52 70.0469 175.805 70.4062C176.09 70.7656 176.307 71.2344 176.455 71.8125L175.43 72.0938C175.301 71.6562 175.141 71.3125 174.949 71.0625C174.758 70.8125 174.484 70.6133 174.129 70.4648C173.773 70.3125 173.379 70.2363 172.945 70.2363C172.426 70.2363 171.977 70.3164 171.598 70.4766C171.219 70.6328 170.912 70.8398 170.678 71.0977C170.447 71.3555 170.268 71.6387 170.139 71.9473C169.92 72.4785 169.811 73.0547 169.811 73.6758C169.811 74.4414 169.941 75.082 170.203 75.5977C170.469 76.1133 170.854 76.4961 171.357 76.7461C171.861 76.9961 172.396 77.1211 172.963 77.1211C173.455 77.1211 173.936 77.0273 174.404 76.8398C174.873 76.6484 175.229 76.4453 175.471 76.2305V74.6309H172.945ZM178.119 78V71.7773H179.068V72.7207C179.311 72.2793 179.533 71.9883 179.736 71.8477C179.943 71.707 180.17 71.6367 180.416 71.6367C180.771 71.6367 181.133 71.75 181.5 71.9766L181.137 72.9551C180.879 72.8027 180.621 72.7266 180.363 72.7266C180.133 72.7266 179.926 72.7969 179.742 72.9375C179.559 73.0742 179.428 73.2656 179.35 73.5117C179.232 73.8867 179.174 74.2969 179.174 74.7422V78H178.119ZM186.188 77.2324C185.797 77.5645 185.42 77.7988 185.057 77.9355C184.697 78.0723 184.311 78.1406 183.896 78.1406C183.213 78.1406 182.688 77.9746 182.32 77.6426C181.953 77.3066 181.77 76.8789 181.77 76.3594C181.77 76.0547 181.838 75.7773 181.975 75.5273C182.115 75.2734 182.297 75.0703 182.52 74.918C182.746 74.7656 183 74.6504 183.281 74.5723C183.488 74.5176 183.801 74.4648 184.219 74.4141C185.07 74.3125 185.697 74.1914 186.1 74.0508C186.104 73.9062 186.105 73.8145 186.105 73.7754C186.105 73.3457 186.006 73.043 185.807 72.8672C185.537 72.6289 185.137 72.5098 184.605 72.5098C184.109 72.5098 183.742 72.5977 183.504 72.7734C183.27 72.9453 183.096 73.252 182.982 73.6934L181.951 73.5527C182.045 73.1113 182.199 72.7559 182.414 72.4863C182.629 72.2129 182.939 72.0039 183.346 71.8594C183.752 71.7109 184.223 71.6367 184.758 71.6367C185.289 71.6367 185.721 71.6992 186.053 71.8242C186.385 71.9492 186.629 72.1074 186.785 72.2988C186.941 72.4863 187.051 72.7246 187.113 73.0137C187.148 73.1934 187.166 73.5176 187.166 73.9863V75.3926C187.166 76.373 187.188 76.9941 187.23 77.2559C187.277 77.5137 187.367 77.7617 187.5 78H186.398C186.289 77.7812 186.219 77.5254 186.188 77.2324ZM186.1 74.877C185.717 75.0332 185.143 75.166 184.377 75.2754C183.943 75.3379 183.637 75.4082 183.457 75.4863C183.277 75.5645 183.139 75.6797 183.041 75.832C182.943 75.9805 182.895 76.1465 182.895 76.3301C182.895 76.6113 183 76.8457 183.211 77.0332C183.426 77.2207 183.738 77.3145 184.148 77.3145C184.555 77.3145 184.916 77.2266 185.232 77.0508C185.549 76.8711 185.781 76.627 185.93 76.3184C186.043 76.0801 186.1 75.7285 186.1 75.2637V74.877ZM188.807 80.3848V71.7773H189.768V72.5859C189.994 72.2695 190.25 72.0332 190.535 71.877C190.82 71.7168 191.166 71.6367 191.572 71.6367C192.104 71.6367 192.572 71.7734 192.979 72.0469C193.385 72.3203 193.691 72.707 193.898 73.207C194.105 73.7031 194.209 74.248 194.209 74.8418C194.209 75.4785 194.094 76.0527 193.863 76.5645C193.637 77.0723 193.305 77.4629 192.867 77.7363C192.434 78.0059 191.977 78.1406 191.496 78.1406C191.145 78.1406 190.828 78.0664 190.547 77.918C190.27 77.7695 190.041 77.582 189.861 77.3555V80.3848H188.807ZM189.762 74.9238C189.762 75.7246 189.924 76.3164 190.248 76.6992C190.572 77.082 190.965 77.2734 191.426 77.2734C191.895 77.2734 192.295 77.0762 192.627 76.6816C192.963 76.2832 193.131 75.668 193.131 74.8359C193.131 74.043 192.967 73.4492 192.639 73.0547C192.314 72.6602 191.926 72.4629 191.473 72.4629C191.023 72.4629 190.625 72.6738 190.277 73.0957C189.934 73.5137 189.762 74.123 189.762 74.9238ZM195.486 78V69.4102H196.541V72.4922C197.033 71.9219 197.654 71.6367 198.404 71.6367C198.865 71.6367 199.266 71.7285 199.605 71.9121C199.945 72.0918 200.188 72.3418 200.332 72.6621C200.48 72.9824 200.555 73.4473 200.555 74.0566V78H199.5V74.0566C199.5 73.5293 199.385 73.1465 199.154 72.9082C198.928 72.666 198.605 72.5449 198.188 72.5449C197.875 72.5449 197.58 72.627 197.303 72.791C197.029 72.9512 196.834 73.1699 196.717 73.4473C196.6 73.7246 196.541 74.1074 196.541 74.5957V78H195.486ZM205.594 78V69.4102H206.73V76.9863H210.961V78H205.594ZM216.445 75.9961L217.535 76.1309C217.363 76.7676 217.045 77.2617 216.58 77.6133C216.115 77.9648 215.521 78.1406 214.799 78.1406C213.889 78.1406 213.166 77.8613 212.631 77.3027C212.1 76.7402 211.834 75.9531 211.834 74.9414C211.834 73.8945 212.104 73.082 212.643 72.5039C213.182 71.9258 213.881 71.6367 214.74 71.6367C215.572 71.6367 216.252 71.9199 216.779 72.4863C217.307 73.0527 217.57 73.8496 217.57 74.877C217.57 74.9395 217.568 75.0332 217.564 75.1582H212.924C212.963 75.8418 213.156 76.3652 213.504 76.7285C213.852 77.0918 214.285 77.2734 214.805 77.2734C215.191 77.2734 215.521 77.1719 215.795 76.9688C216.068 76.7656 216.285 76.4414 216.445 75.9961ZM212.982 74.291H216.457C216.41 73.7676 216.277 73.375 216.059 73.1133C215.723 72.707 215.287 72.5039 214.752 72.5039C214.268 72.5039 213.859 72.666 213.527 72.9902C213.199 73.3145 213.018 73.748 212.982 74.291ZM222.926 77.2324C222.535 77.5645 222.158 77.7988 221.795 77.9355C221.436 78.0723 221.049 78.1406 220.635 78.1406C219.951 78.1406 219.426 77.9746 219.059 77.6426C218.691 77.3066 218.508 76.8789 218.508 76.3594C218.508 76.0547 218.576 75.7773 218.713 75.5273C218.854 75.2734 219.035 75.0703 219.258 74.918C219.484 74.7656 219.738 74.6504 220.02 74.5723C220.227 74.5176 220.539 74.4648 220.957 74.4141C221.809 74.3125 222.436 74.1914 222.838 74.0508C222.842 73.9062 222.844 73.8145 222.844 73.7754C222.844 73.3457 222.744 73.043 222.545 72.8672C222.275 72.6289 221.875 72.5098 221.344 72.5098C220.848 72.5098 220.48 72.5977 220.242 72.7734C220.008 72.9453 219.834 73.252 219.721 73.6934L218.689 73.5527C218.783 73.1113 218.938 72.7559 219.152 72.4863C219.367 72.2129 219.678 72.0039 220.084 71.8594C220.49 71.7109 220.961 71.6367 221.496 71.6367C222.027 71.6367 222.459 71.6992 222.791 71.8242C223.123 71.9492 223.367 72.1074 223.523 72.2988C223.68 72.4863 223.789 72.7246 223.852 73.0137C223.887 73.1934 223.904 73.5176 223.904 73.9863V75.3926C223.904 76.373 223.926 76.9941 223.969 77.2559C224.016 77.5137 224.105 77.7617 224.238 78H223.137C223.027 77.7812 222.957 77.5254 222.926 77.2324ZM222.838 74.877C222.455 75.0332 221.881 75.166 221.115 75.2754C220.682 75.3379 220.375 75.4082 220.195 75.4863C220.016 75.5645 219.877 75.6797 219.779 75.832C219.682 75.9805 219.633 76.1465 219.633 76.3301C219.633 76.6113 219.738 76.8457 219.949 77.0332C220.164 77.2207 220.477 77.3145 220.887 77.3145C221.293 77.3145 221.654 77.2266 221.971 77.0508C222.287 76.8711 222.52 76.627 222.668 76.3184C222.781 76.0801 222.838 75.7285 222.838 75.2637V74.877ZM225.533 78V71.7773H226.482V72.7207C226.725 72.2793 226.947 71.9883 227.15 71.8477C227.357 71.707 227.584 71.6367 227.83 71.6367C228.186 71.6367 228.547 71.75 228.914 71.9766L228.551 72.9551C228.293 72.8027 228.035 72.7266 227.777 72.7266C227.547 72.7266 227.34 72.7969 227.156 72.9375C226.973 73.0742 226.842 73.2656 226.764 73.5117C226.646 73.8867 226.588 74.2969 226.588 74.7422V78H225.533ZM229.541 78V71.7773H230.49V72.6621C230.947 71.9785 231.607 71.6367 232.471 71.6367C232.846 71.6367 233.189 71.7051 233.502 71.8418C233.818 71.9746 234.055 72.1504 234.211 72.3691C234.367 72.5879 234.477 72.8477 234.539 73.1484C234.578 73.3438 234.598 73.6855 234.598 74.1738V78H233.543V74.2148C233.543 73.7852 233.502 73.4648 233.42 73.2539C233.338 73.0391 233.191 72.8691 232.98 72.7441C232.773 72.6152 232.529 72.5508 232.248 72.5508C231.799 72.5508 231.41 72.6934 231.082 72.9785C230.758 73.2637 230.596 73.8047 230.596 74.6016V78H229.541ZM236.227 70.623V69.4102H237.281V70.623H236.227ZM236.227 78V71.7773H237.281V78H236.227ZM238.893 78V71.7773H239.842V72.6621C240.299 71.9785 240.959 71.6367 241.822 71.6367C242.197 71.6367 242.541 71.7051 242.854 71.8418C243.17 71.9746 243.406 72.1504 243.562 72.3691C243.719 72.5879 243.828 72.8477 243.891 73.1484C243.93 73.3438 243.949 73.6855 243.949 74.1738V78H242.895V74.2148C242.895 73.7852 242.854 73.4648 242.771 73.2539C242.689 73.0391 242.543 72.8691 242.332 72.7441C242.125 72.6152 241.881 72.5508 241.6 72.5508C241.15 72.5508 240.762 72.6934 240.434 72.9785C240.109 73.2637 239.947 73.8047 239.947 74.6016V78H238.893ZM245.379 78.5156L246.404 78.668C246.447 78.9844 246.566 79.2148 246.762 79.3594C247.023 79.5547 247.381 79.6523 247.834 79.6523C248.322 79.6523 248.699 79.5547 248.965 79.3594C249.23 79.1641 249.41 78.8906 249.504 78.5391C249.559 78.3242 249.584 77.873 249.58 77.1855C249.119 77.7285 248.545 78 247.857 78C247.002 78 246.34 77.6914 245.871 77.0742C245.402 76.457 245.168 75.7168 245.168 74.8535C245.168 74.2598 245.275 73.7129 245.49 73.2129C245.705 72.709 246.016 72.3203 246.422 72.0469C246.832 71.7734 247.312 71.6367 247.863 71.6367C248.598 71.6367 249.203 71.9336 249.68 72.5273V71.7773H250.652V77.1562C250.652 78.125 250.553 78.8105 250.354 79.2129C250.158 79.6191 249.846 79.9395 249.416 80.1738C248.99 80.4082 248.465 80.5254 247.84 80.5254C247.098 80.5254 246.498 80.3574 246.041 80.0215C245.584 79.6895 245.363 79.1875 245.379 78.5156ZM246.252 74.7773C246.252 75.5938 246.414 76.1895 246.738 76.5645C247.062 76.9395 247.469 77.127 247.957 77.127C248.441 77.127 248.848 76.9414 249.176 76.5703C249.504 76.1953 249.668 75.6094 249.668 74.8125C249.668 74.0508 249.498 73.4766 249.158 73.0898C248.822 72.7031 248.416 72.5098 247.939 72.5098C247.471 72.5098 247.072 72.7012 246.744 73.084C246.416 73.4629 246.252 74.0273 246.252 74.7773ZM255.727 78V69.4102H258.967C259.537 69.4102 259.973 69.4375 260.273 69.4922C260.695 69.5625 261.049 69.6973 261.334 69.8965C261.619 70.0918 261.848 70.3672 262.02 70.7227C262.195 71.0781 262.283 71.4688 262.283 71.8945C262.283 72.625 262.051 73.2441 261.586 73.752C261.121 74.2559 260.281 74.5078 259.066 74.5078H256.863V78H255.727ZM256.863 73.4941H259.084C259.818 73.4941 260.34 73.3574 260.648 73.084C260.957 72.8105 261.111 72.4258 261.111 71.9297C261.111 71.5703 261.02 71.2637 260.836 71.0098C260.656 70.752 260.418 70.582 260.121 70.5C259.93 70.4492 259.576 70.4238 259.061 70.4238H256.863V73.4941ZM263.572 78V69.4102H264.627V78H263.572ZM270.328 77.2324C269.938 77.5645 269.561 77.7988 269.197 77.9355C268.838 78.0723 268.451 78.1406 268.037 78.1406C267.354 78.1406 266.828 77.9746 266.461 77.6426C266.094 77.3066 265.91 76.8789 265.91 76.3594C265.91 76.0547 265.979 75.7773 266.115 75.5273C266.256 75.2734 266.438 75.0703 266.66 74.918C266.887 74.7656 267.141 74.6504 267.422 74.5723C267.629 74.5176 267.941 74.4648 268.359 74.4141C269.211 74.3125 269.838 74.1914 270.24 74.0508C270.244 73.9062 270.246 73.8145 270.246 73.7754C270.246 73.3457 270.146 73.043 269.947 72.8672C269.678 72.6289 269.277 72.5098 268.746 72.5098C268.25 72.5098 267.883 72.5977 267.645 72.7734C267.41 72.9453 267.236 73.252 267.123 73.6934L266.092 73.5527C266.186 73.1113 266.34 72.7559 266.555 72.4863C266.77 72.2129 267.08 72.0039 267.486 71.8594C267.893 71.7109 268.363 71.6367 268.898 71.6367C269.43 71.6367 269.861 71.6992 270.193 71.8242C270.525 71.9492 270.77 72.1074 270.926 72.2988C271.082 72.4863 271.191 72.7246 271.254 73.0137C271.289 73.1934 271.307 73.5176 271.307 73.9863V75.3926C271.307 76.373 271.328 76.9941 271.371 77.2559C271.418 77.5137 271.508 77.7617 271.641 78H270.539C270.43 77.7812 270.359 77.5254 270.328 77.2324ZM270.24 74.877C269.857 75.0332 269.283 75.166 268.518 75.2754C268.084 75.3379 267.777 75.4082 267.598 75.4863C267.418 75.5645 267.279 75.6797 267.182 75.832C267.084 75.9805 267.035 76.1465 267.035 76.3301C267.035 76.6113 267.141 76.8457 267.352 77.0332C267.566 77.2207 267.879 77.3145 268.289 77.3145C268.695 77.3145 269.057 77.2266 269.373 77.0508C269.689 76.8711 269.922 76.627 270.07 76.3184C270.184 76.0801 270.24 75.7285 270.24 75.2637V74.877ZM275.25 77.0566L275.402 77.9883C275.105 78.0508 274.84 78.082 274.605 78.082C274.223 78.082 273.926 78.0215 273.715 77.9004C273.504 77.7793 273.355 77.6211 273.27 77.4258C273.184 77.2266 273.141 76.8105 273.141 76.1777V72.5977H272.367V71.7773H273.141V70.2363L274.189 69.6035V71.7773H275.25V72.5977H274.189V76.2363C274.189 76.5371 274.207 76.7305 274.242 76.8164C274.281 76.9023 274.342 76.9707 274.424 77.0215C274.51 77.0723 274.631 77.0977 274.787 77.0977C274.904 77.0977 275.059 77.084 275.25 77.0566ZM276.539 78V72.5977H275.607V71.7773H276.539V71.1152C276.539 70.6973 276.576 70.3867 276.65 70.1836C276.752 69.9102 276.93 69.6895 277.184 69.5215C277.441 69.3496 277.801 69.2637 278.262 69.2637C278.559 69.2637 278.887 69.2988 279.246 69.3691L279.088 70.2891C278.869 70.25 278.662 70.2305 278.467 70.2305C278.146 70.2305 277.92 70.2988 277.787 70.4355C277.654 70.5723 277.588 70.8281 277.588 71.2031V71.7773H278.801V72.5977H277.588V78H276.539ZM279.234 74.8887C279.234 73.7363 279.555 72.8828 280.195 72.3281C280.73 71.8672 281.383 71.6367 282.152 71.6367C283.008 71.6367 283.707 71.918 284.25 72.4805C284.793 73.0391 285.064 73.8125 285.064 74.8008C285.064 75.6016 284.943 76.2324 284.701 76.6934C284.463 77.1504 284.113 77.5059 283.652 77.7598C283.195 78.0137 282.695 78.1406 282.152 78.1406C281.281 78.1406 280.576 77.8613 280.037 77.3027C279.502 76.7441 279.234 75.9395 279.234 74.8887ZM280.318 74.8887C280.318 75.6855 280.492 76.2832 280.84 76.6816C281.188 77.0762 281.625 77.2734 282.152 77.2734C282.676 77.2734 283.111 77.0742 283.459 76.6758C283.807 76.2773 283.98 75.6699 283.98 74.8535C283.98 74.084 283.805 73.502 283.453 73.1074C283.105 72.709 282.672 72.5098 282.152 72.5098C281.625 72.5098 281.188 72.707 280.84 73.1016C280.492 73.4961 280.318 74.0918 280.318 74.8887ZM286.295 78V71.7773H287.244V72.7207C287.486 72.2793 287.709 71.9883 287.912 71.8477C288.119 71.707 288.346 71.6367 288.592 71.6367C288.947 71.6367 289.309 71.75 289.676 71.9766L289.312 72.9551C289.055 72.8027 288.797 72.7266 288.539 72.7266C288.309 72.7266 288.102 72.7969 287.918 72.9375C287.734 73.0742 287.604 73.2656 287.525 73.5117C287.408 73.8867 287.35 74.2969 287.35 74.7422V78H286.295ZM290.303 78V71.7773H291.246V72.6504C291.441 72.3457 291.701 72.1016 292.025 71.918C292.35 71.7305 292.719 71.6367 293.133 71.6367C293.594 71.6367 293.971 71.7324 294.264 71.9238C294.561 72.1152 294.77 72.3828 294.891 72.7266C295.383 72 296.023 71.6367 296.812 71.6367C297.43 71.6367 297.904 71.8086 298.236 72.1523C298.568 72.4922 298.734 73.0176 298.734 73.7285V78H297.686V74.0801C297.686 73.6582 297.65 73.3555 297.58 73.1719C297.514 72.9844 297.391 72.834 297.211 72.7207C297.031 72.6074 296.82 72.5508 296.578 72.5508C296.141 72.5508 295.777 72.6973 295.488 72.9902C295.199 73.2793 295.055 73.7441 295.055 74.3848V78H294V73.957C294 73.4883 293.914 73.1367 293.742 72.9023C293.57 72.668 293.289 72.5508 292.898 72.5508C292.602 72.5508 292.326 72.6289 292.072 72.7852C291.822 72.9414 291.641 73.1699 291.527 73.4707C291.414 73.7715 291.357 74.2051 291.357 74.7715V78H290.303Z" fill="#FFD700"/>
</svg>
